# xmcd
#
# Track frame offsets: 
#        150
#        18741
#        35783
#        52643
#        80216
#        100073
#        123913
#        143883
#        158497
#        183458
#        205817
#        225301
#        244236
#
# Disc length: 3708 seconds
#
# Revision: 0
# Processed by: cddbd v1.5.2PL0 Copyright (c) Steve Scherf et al.
# Submitted via: ExactAudioCopy v0.95b3
#
DISCID=a60e7a0d
DTITLE=Lluís Coloma - Lonely Avenue
DYEAR=2006
DGENRE=Blues
TTITLE0=Goin' To Malaysia
TTITLE1=Rolling Left Hand
TTITLE2=Lonely Avenue
TTITLE3=The Ball
TTITLE4=The Spirit Of The Blues
TTITLE5=Early Days
TTITLE6=Magda
TTITLE7=Jumping Fives
TTITLE8=New Blues
TTITLE9=Slow Sunset Blues
TTITLE10=Yancey Meets Booker
TTITLE11=Tea At Dawn Part One
TTITLE12=Tea At Dawn Part Two
EXTD=
EXTT0=
EXTT1=
EXTT2=
EXTT3=
EXTT4=
EXTT5=
EXTT6=
EXTT7=
EXTT8=
EXTT9=
EXTT10=
EXTT11=
EXTT12=
PLAYORDER=
